<svg id="SvgjsSvg1011" xmlns="http://www.w3.org/2000/svg" version="1.1" xmlns:xlink="http://www.w3.org/1999/xlink" xmlns:svgjs="http://svgjs.com/svgjs" width="8" height="8" viewBox="0 0 8 8"><title>circle list-item copy 10</title><desc>Created with Avocode.</desc><defs id="SvgjsDefs1012"><clipPath id="SvgjsClipPath1016"><path id="SvgjsPath1015" d="M702 475C704.209 475 706 476.791 706 479C706 481.209 704.209 483 702 483C699.791 483 698 481.209 698 479C698 476.791 699.791 475 702 475Z " fill="#ffffff"></path></clipPath></defs><path id="SvgjsPath1013" d="M702 475C704.209 475 706 476.791 706 479C706 481.209 704.209 483 702 483C699.791 483 698 481.209 698 479C698 476.791 699.791 475 702 475Z " fill="#ffffff" fill-opacity="0" transform="matrix(1,0,0,1,-698,-475)"></path><path id="SvgjsPath1014" d="M702 475C704.209 475 706 476.791 706 479C706 481.209 704.209 483 702 483C699.791 483 698 481.209 698 479C698 476.791 699.791 475 702 475Z " fill-opacity="0" fill="#ffffff" stroke-dasharray="0" stroke-linejoin="round" stroke-linecap="round" stroke-opacity="1" stroke="#00bc9c" stroke-miterlimit="50" stroke-width="2" clip-path="url(&quot;#SvgjsClipPath1016&quot;)" transform="matrix(1,0,0,1,-698,-475)"></path></svg>